<?xml version="1.0" encoding="UTF-8"?>
<svg id="Layer_1" xmlns="http://www.w3.org/2000/svg" version="1.1" viewBox="0 0 800.68 381.96">
  <!-- Generator: Adobe Illustrator 29.0.1, SVG Export Plug-In . SVG Version: 2.1.0 Build 192)  -->
  <defs>
    <style>
      .st0 {
        fill: #555354;
      }

      .st1 {
        fill: #cd0a1a;
      }
    </style>
  </defs>
  <path class="st1" d="M35.41,148.28c-2.77-.56-11.42-6.63-13.46-9.08-14.97-17.97-1.04-44.42,21.71-44.34l283.22.34c24.39,5.77,27.5,40.74,4.73,50.42-1.09.46-7.58,2.67-8,2.67h-142.91v151.22c0,1.4-4.78,10.12-6.11,11.68-11.99,14.11-37.38,11.67-44.78-5.86-.54-1.28-2.48-7.41-2.48-8.19v-147.06l-1.78-1.78H35.41Z"/>
  <path class="st1" d="M94.11,355.83h656.46l1.78-1.78v-221.78c-1.04-1.69-2.36-1.64-4.09-1.84-35.07-4.12-77.08,4.19-112.68-1.17l-255.07.07c-9.96-1.15-12.14-11.83-3-16.1,85.9-.42,172.09-1.25,258.07-.58,2.8.02,5.4,1.26,8.2,1.28,36.19.31,80.12-3.31,115.15-.1,3.83.35,6.8.67,8.32,4.73l.58,245.04c.04,5.63-2.19,8.22-7.74,8.86-35.88,4.17-79.58-3.2-116.3.03-186.27-2.58-373.22-1.2-559.49-.3-8.54-2.77-5.49-8.34-5.53-14.51-.41-60.92.23-121.84-.12-182.76,1.33-10.34,15.48-6.91,15.48-1.12v182.05Z"/>
  <path class="st1" d="M145.99,14.55c17.58-4.48,37.47,7.23,40.34,25.5,7.61,48.42-71.01,53.49-63.66-.18,1.41-10.33,13.5-22.81,23.31-25.32Z"/>
  <path class="st0" d="M490.24,214.7v-36.77h13.05v61.67c-3.19-.33-7,.55-10.06-.03-6.19-1.16-24.84-32.35-32.64-36.74v36.77h-13.05v-61.67c2.83.27,6.15-.48,8.87.03,4.8.9,22.11,26.6,27.29,32.01,1.73,1.81,3.79,4.79,6.54,4.73Z"/>
  <path class="st0" d="M324.19,239.6l-13.06-.56-6.69-12.28-29,.51-4.8,12.15-14.04.18,27.47-61.47c3.93,0,11.46-1.53,14.12,1.51l26.01,59.96ZM281.5,217.07h18.98c0-2.92-7.63-23.73-8.91-23.73-2.3-.01-2.75,1.95-3.55,3.56-1.23,2.5-7.65,19.03-6.52,20.17Z"/>
  <path class="st0" d="M433.31,177.93v10.67h-30.24c-.33,0-2.77,1.22-3.01,2,.58,4.35-1.56,10.21,1.82,13.42h27.87v9.49h-27.87c-3.48,3.54-1.15,9.91-1.82,14.6.24.78,2.68,2,3.01,2h31.43v9.49h-47.44v-59.89l1.78-1.78h44.48Z"/>
  <path class="st0" d="M613.53,192.14c-8.39-2.7-26.71-8.71-29.71,2.99.06,11.83,32.65,6.68,35.64,22.59,4.47,23.73-24.76,26.38-41.19,21.03-11.29-3.67-8.99-4.74-4.99-14.56,5.8,7.06,39.45,10.31,32.61-3.57-3.65-7.41-32.52-4.73-34.93-19.62-4.22-26.12,29.21-28.19,45.67-18.37l-3.11,9.52Z"/>
  <path class="st1" d="M651.54,227.74c.25-2.49-.41-5.37-.05-7.76,1.32-8.73,22.91-29.49,27.29-39.12,2.7-2.64,8.68-2.03,12.51-1.74,1.76.13,3.43-.93,2.93,1.76l-23.79,31.95-1.1,4.23h15.42s-.01-11.86-.01-11.86h13.06s1.35,11.7,1.35,11.7l9.33.16v10.69s-10.16,1.11-10.16,1.11l-.51,11.94h-12.37s-.87-11.09-.87-11.09l-1.59-1.97h-31.43Z"/>
  <path class="st0" d="M456.44,258.58c20.32,3.37,23.27,32.72,4.23,41.04l12.96,20.63c-10.81,2.69-15.45-11.31-20.16-18.97h-21.35v18.98h-8.3v-61.67c9.9,1.16,23.17-1.56,32.62,0ZM432.13,294.16h21.94c5.21,0,10.74-7.45,11.3-12.43.7-6.18-3.4-16.04-10.12-16.04h-23.13v28.46Z"/>
  <polygon class="st0" points="564.96 177.93 564.96 189.79 545.98 189.79 545.98 239.61 531.75 239.61 531.75 189.79 512.77 189.79 512.77 177.93 564.96 177.93"/>
  <path class="st0" d="M258.97,177.93v11.86h-20.16v49.81h-13.05v-49.81h-18.38c-2.8-2.55-2.8-9.31,0-11.86h51.59Z"/>
  <path class="st0" d="M346.73,177.93v51h30.84v10.67h-45.07v-59.89c3.44-3.48,9.66-1.16,14.23-1.78Z"/>
  <path class="st0" d="M657.47,320.25h-8.3v-59.89l1.78-1.78h27.28c2.4,0,10.52,3.38,12.85,4.94,13.68,9.22,9.81,32.71-6.54,36.94-9.03,2.34-19.27-1.49-27.06,2.59v17.2ZM657.47,294.16c7.34,2.26,26.67,1.83,31.41-4.76,6.45-8.96.37-23.7-10.66-23.7h-18.98l-1.78,1.78v26.69Z"/>
  <path class="st0" d="M398.91,320.25c-11.49,2.68-8.49-9.84-15.01-15.22l-33.74.54-5.97,14.52-8.13.15,27.22-61.12c2.98-.93,7.55-1.58,9.41,1.35l26.21,59.76ZM355.63,298.91h23.72l1.61-2.75-13.46-29.25-13.48,29.23,1.62,2.77Z"/>
  <path class="st0" d="M251.8,268.03c-8.62-3.55-33.31-8.05-33.29,6.56s31.36,7.8,36.95,23.66c8.31,23.57-32.59,28.08-45.22,15.49-1.82-1.84.98-5.43,3.04-5.41.79,0,10.52,4.85,14.79,5.44,8.5,1.17,25.06-1.78,19.61-13.68-4.52-9.88-39.34-5.12-37.39-26.71,1.63-17.99,29.29-18.92,41.6-11.87l-.09,6.5Z"/>
  <path class="st0" d="M566.14,258.58h7.12c.79,13.81-1.55,29.7,1.26,43.21,2.64,12.71,24.09,15.58,31.3,6.56,1.06-1.33,4.2-8.79,4.2-10.03v-39.73h7.12v43.29c0,2.17-3.73,9.28-5.41,11.19-10.27,11.71-36.67,9.98-43.43-5.05-.4-.89-2.16-5.8-2.16-6.15v-43.29Z"/>
  <polygon class="st0" points="324.2 258.58 324.2 265.7 302.85 265.7 302.85 320.25 295.73 320.25 295.73 265.7 274.98 265.7 273.2 258.58 324.2 258.58"/>
  <polygon class="st0" points="543.61 258.58 542.42 265.7 521.08 265.7 521.08 320.25 513.96 320.25 513.96 265.7 492.61 265.7 492.61 258.58 543.61 258.58"/>
</svg>